<svg width="300" height="300" viewBox="0 0 300 300" fill="none" xmlns="http://www.w3.org/2000/svg">
<path fill-rule="evenodd" clip-rule="evenodd" d="M110 20.0002L150 0L190 20.0002L150 39.9998L110 20.0002ZM33.8179 213.757C14.5651 211.619 0 195.345 0 175.974V81.6288C0 70.9478 4.49328 60.7594 12.3802 53.557C20.2675 46.3541 30.8208 42.8021 41.4576 43.7688L110 50.0002L150 69.9998L190 50.0002L258.542 43.7688C269.179 42.8021 279.732 46.3541 287.62 53.557C295.507 60.7594 300 70.9478 300 81.6288V175.974C300 195.345 285.435 211.619 266.182 213.757L210 220L150 240L90 220L33.8179 213.757V213.757ZM196.032 102.259C198.613 101.831 201.228 101.563 203.844 101.471C206.545 101.375 209.547 101.307 212.24 101.684C215.001 101.998 217.621 102.814 220.102 104.133C222.58 105.451 224.669 107.492 226.369 110.255C228.07 113.017 228.921 115.978 228.921 120.248C228.921 123.387 228.424 126.307 227.432 129.007C226.44 131.644 224.988 133.935 223.077 135.882C221.162 137.766 218.821 139.344 215.777 140.412C212.802 141.479 210 141.91 204.483 141.91L191.813 141.903V123.349C191.813 121.21 191.813 119.069 188.605 118C185.395 116.929 178.378 118.855 175.661 119.67C171.916 120.759 164 123.349 164 132.977V180.509C164 190.137 171.916 192.727 175.661 193.817C178.378 194.632 185.395 196.558 188.605 195.487C191.813 194.418 191.813 192.276 191.813 190.137V161.584H201.281C210.347 161.584 218.208 160.642 224.868 158.758C231.597 156.875 237.264 154.143 241.868 150.564C246.472 146.923 249.979 142.465 252.388 137.191C254.795 131.916 256 125.857 256 119.014C256 114.053 255.22 109.596 253.662 105.64C252.103 101.621 249.838 98.1365 246.861 95.1854C243.888 92.1715 240.274 89.6914 236.024 87.745C231.844 85.7986 227.702 84.48 223.593 83.7893C219.485 83.0362 215.942 82.5648 212.967 82.3766C210.541 82.1669 205.001 82.0445 201.345 82.0099C201.31 82.0094 201.276 82.0094 201.24 82.009C200.563 82.0027 199.954 81.9998 199.444 81.9998C199.372 81.9998 199.303 82.0099 199.235 82.0296C195.142 82.1126 191.114 82.451 187.748 83.0453C183.832 83.6784 180.428 84.4843 177.534 85.463C174.583 86.3837 172.143 87.3912 170.214 88.4851C168.284 89.579 166.951 90.5285 166.213 91.3344C165.419 92.1403 164.851 93.2918 164.511 94.7885C164.17 96.2275 164 98.3866 164 101.265C164 102.934 164.085 106.513 164.256 107.722C164.369 108.931 164.568 109.909 164.851 110.658C165.078 111.348 165.39 111.838 165.787 112.126C166.128 112.413 166.554 112.557 167.064 112.557C167.802 112.557 168.994 112.039 170.639 111.003C172.284 109.967 174.469 108.844 177.193 107.636C179.917 106.427 183.842 105.164 186.982 104.268C189.953 103.42 193.221 102.725 196.032 102.259V102.259ZM136 101.265C136 98.3866 135.83 96.2275 135.489 94.7885C135.149 93.2918 134.581 92.1403 133.787 91.3344C133.049 90.5285 131.716 89.579 129.786 88.4851C127.857 87.3912 125.417 86.3837 122.466 85.463C119.572 84.4843 116.168 83.6784 112.252 83.0453C108.337 82.3541 107.526 82.009 102.759 82.009C94.0776 82.009 84.7992 83.3616 77.7062 86.0674C70.6699 88.7731 64.655 92.6875 59.6616 97.8106C54.6682 102.876 50.8094 109.065 48.0854 116.376C45.3619 123.629 44.0002 131.832 44.0002 140.985C44.0002 149.85 45.2765 157.794 47.8301 164.818C50.3837 171.783 54.0725 177.712 58.8955 182.605C63.719 187.44 69.5918 191.155 76.5149 193.744C83.4941 196.277 91.3819 197.544 100.177 197.544C103.185 197.544 104.593 197.4 107.544 197.112C110.552 196.825 112.933 196.393 115.827 195.817C118.778 195.24 121.615 194.551 124.339 193.744C125.496 193.402 127.05 192.915 128.646 192.405C133.02 191.04 135.999 186.989 135.999 182.407C136 180.983 136 179.932 136 179.932V145.934C136 142.03 134.449 138.286 131.688 135.526C128.928 132.766 125.184 131.216 121.28 131.217L115.666 131.218H101.766C98.929 131.218 96.2083 132.345 94.2024 134.351C92.1965 136.357 91.0694 139.079 91.0699 141.915L91.0694 147.788C91.0694 149.068 91.5778 150.295 92.4826 151.2C93.3878 152.105 94.6152 152.614 95.8949 152.614H112.465V174.009C108.186 176.148 104.521 177.004 99.4138 177.004C94.307 177.004 91.0464 176.492 86.7907 174.822C82.5917 173.152 79.5221 170.915 76.5149 167.633C73.5072 164.352 71.1523 160.294 69.4498 155.458C67.8043 150.565 67.1069 147.022 67.1069 140.632C67.1069 134.818 67.8043 130.633 69.4498 125.855C71.0957 121.02 73.4506 116.904 76.5149 113.507C79.5792 110.053 83.2675 107.405 87.5798 105.563C91.8926 103.663 96.7162 102.713 102.05 102.713C107.043 102.713 109.273 103.232 113.018 104.268C116.82 105.304 120.083 106.427 122.807 107.636C125.531 108.844 127.716 109.967 129.361 111.003C131.006 112.039 132.198 112.557 132.936 112.557C133.446 112.557 133.872 112.413 134.213 112.126C134.61 111.838 134.922 111.348 135.149 110.658C135.432 109.909 135.631 108.931 135.744 107.722C135.915 106.513 136 102.934 136 101.265V101.265ZM80.0002 268C80.0002 268 42 264.333 30 258C19.5029 252.46 8.00016 230 8.00016 230C8.00016 230 18 242 33.9998 244L90 250L150 270L210 250L266 244C282 242 292 230 292 230C292 230 280.497 252.46 270 258C258 264.333 220 268 220 268L210 280L150 300L90 280L80.0002 268V268Z" fill="white"/>
</svg>
